<svg xmlns="http://www.w3.org/2000/svg" viewBox="0 0 15.73 15.4"><defs><style>.cls-1{fill:none;}.cls-1,.cls-2{stroke:#fff;stroke-miterlimit:10;stroke-width:0.5px;}.cls-2{fill:#fff;}</style></defs><g id="Layer_2" data-name="Layer 2"><g id="Layer_2-2" data-name="Layer 2"><g id="Layer_1-2" data-name="Layer 1"><path class="cls-1" d="M8.58,3.65c2.7,0,4.9-.8,4.9-1.7S11.28.25,8.58.25,3.68,1,3.68,2v.1C3.78,3,5.88,3.65,8.58,3.65Z"/><path class="cls-1" d="M1.08,3.35c.3-.3.5-.6.4-.7h-.1a.66.66,0,0,0-.7.2c-.3.3-.5.6-.4.7h0C.38,3.75.78,3.65,1.08,3.35Z"/><path class="cls-2" d="M15.48,12.15a1.1,1.1,0,0,0-.6-1,.9.9,0,0,0-.5-.1,1.27,1.27,0,0,1-.6-.1c-.2,0-.3-.2-.4-.4V8.85h0V2c0,1-2.2,1.7-4.9,1.7S3.78,3,3.68,2h0v2.8l-2.1-2h0c0,.2-.2.4-.5.6a1.08,1.08,0,0,1-.7.3h0l3.3,3.9v.1h0v2.8c0,.4-.1.5-.5.6a2.2,2.2,0,0,0-.8.1,1.06,1.06,0,0,0-.8.9V14c0,.2.2.3.3.4a.55.55,0,0,0,.5-.3c.2-.4.3-.7.5-1.1a.46.46,0,0,1,.5-.3h1.1a.79.79,0,0,0,.8-.5.76.76,0,0,0,.2-.5v-.2a1.06,1.06,0,0,1,.6-.7.83.83,0,0,1,.8.3c.1.2.2.3.2.5a1.14,1.14,0,0,0,.3.8c.1.2.3.2.6.3L9,13a1,1,0,0,1,.5.4,3.51,3.51,0,0,1,.5.8,5.58,5.58,0,0,1,.5.8.73.73,0,0,0,.6.2c.2-.1.2-.2.2-.5s-.1-.8-.2-1.2c-.1-.7-.1-.7-.7-1.1l-.1-.1c-.3-.3-.4-.3-.3-.8a.79.79,0,0,1,.8-.8c.4,0,.7.3.8.8a.76.76,0,0,0,.2.5,1.05,1.05,0,0,0,.9.5h1c.4,0,.4,0,.6.4a3.58,3.58,0,0,1,.4,1.1.55.55,0,0,0,.5.3c.2,0,.3-.2.3-.4Z"/></g></g></g></svg>