<svg id="Layer_1" data-name="Layer 1" xmlns="http://www.w3.org/2000/svg" width="15.7" height="15.4" viewBox="0 0 15.7 15.4"><defs><style>.cls-1{fill:#fff;}</style></defs><path class="cls-1" d="M10,6.34a.17.17,0,0,1,0-.1.14.14,0,0,1-.06-.12.21.21,0,0,0,0-.12.79.79,0,0,1,0-.13s0,0,0,0l-.09-.09s-.06-.05-.06-.11l-.15-.08a.22.22,0,0,1-.09-.11,1.83,1.83,0,0,0-.19-.24A1.14,1.14,0,0,0,9.06,5,.47.47,0,0,0,8.89,5l-.14,0-.06-.1s0-.09,0-.14l-.2,0-.21-.07-.16,0L8,4.49H7.73l-.12,0-.13,0a.66.66,0,0,1-.24,0H7.08a.41.41,0,0,0-.17.07.32.32,0,0,1-.16,0,.17.17,0,0,1-.07.09l-.09.06a1.18,1.18,0,0,1-.19.1A.26.26,0,0,0,6.27,5L6.15,5a.08.08,0,0,0,0,0A.31.31,0,0,1,6,5.19L6,5.25a.1.1,0,0,1,0,.12l-.09.08a.69.69,0,0,1,0,.2.23.23,0,0,0-.07.11l0,.1a.71.71,0,0,0-.08.34c0,.11,0,.23,0,.33a.24.24,0,0,0,0,.14s0,0,0,.07a1.54,1.54,0,0,0,0,.19.67.67,0,0,0,0,.18l0,.1a.14.14,0,0,0,0,.07l.09.14a.29.29,0,0,1,.07.1A.44.44,0,0,1,6,7.67L6,7.84l.09.09a.54.54,0,0,1,.07.13l.21.12.13.09a1.72,1.72,0,0,1,.21.12.41.41,0,0,0,.14.08,1.18,1.18,0,0,0,.43.09h.13a4.24,4.24,0,0,0,.48,0l.32,0,.25,0a.48.48,0,0,0,.21-.07.54.54,0,0,1,.16-.09.11.11,0,0,0,.08,0,.61.61,0,0,0,.16-.09l.08-.06L9.3,8a.19.19,0,0,0,.09-.12l.08,0a.18.18,0,0,0,.08-.07.29.29,0,0,0,.06-.15.11.11,0,0,1,0-.08.18.18,0,0,1,0-.07.43.43,0,0,0,0-.07.25.25,0,0,0,0-.07l0-.06c0-.08,0-.12.06-.14a.12.12,0,0,0,0-.1l.06-.18A.84.84,0,0,0,10,6.72a1,1,0,0,0,0-.16.83.83,0,0,0,0-.13A.29.29,0,0,1,10,6.34Z"/><path class="cls-1" d="M7.85.08A7.62,7.62,0,1,0,15.47,7.7,7.62,7.62,0,0,0,7.85.08Zm3.82,3.69a.8.8,0,0,0,0,.16.19.19,0,0,1,0,.08.72.72,0,0,0,0,.28,1.12,1.12,0,0,1,0,.2,1,1,0,0,1,0,.3c0,.07,0,.14-.06.22a1.86,1.86,0,0,1-.09.24.77.77,0,0,1,0,.37l0,.1,0,.1a.13.13,0,0,0,0,.06.09.09,0,0,1,0,.07.75.75,0,0,0,0,.17v.09a1.27,1.27,0,0,1,0,.32,1.12,1.12,0,0,1,0,.21,1.41,1.41,0,0,1-.09.38.36.36,0,0,0,0,.09l0,.07a.24.24,0,0,1,0,.15.31.31,0,0,1,.05.1.23.23,0,0,1,0,.12.79.79,0,0,1,0,.17.78.78,0,0,0,0,.14.29.29,0,0,0,0,.09l0,.09a.5.5,0,0,1,0,.21.59.59,0,0,1,0,.2,2,2,0,0,1,0,.4,2.26,2.26,0,0,1,0,.46.76.76,0,0,0,0,.21,1.08,1.08,0,0,1,0,.18s0,.06,0,.09a.31.31,0,0,1,0,.08s0,.07,0,.1a.29.29,0,0,1,0,.09,1.65,1.65,0,0,1-.09.21.36.36,0,0,1,0,.11.29.29,0,0,0,0,.1.41.41,0,0,0,0,.16,1.1,1.1,0,0,1,0,.18l-.05.07s0,0,0,0a.68.68,0,0,1,0,.19l-.14.13a.33.33,0,0,1-.18.11s0,.07,0,.09l-.07.06a.09.09,0,0,0,0,.06.09.09,0,0,1,0,.07s0,0-.06.06a.16.16,0,0,1,0,.07l-.45.23a2.48,2.48,0,0,0-.4.26.37.37,0,0,0-.18,0l-.12,0-.13,0-.17,0-.09,0a.28.28,0,0,1-.13,0H8.16l-.07,0-.06,0a1.27,1.27,0,0,1-.35.05H7.4l-.08,0-.08,0h-.3l-.08,0-.06,0H6.55l-.18,0a.16.16,0,0,0-.09,0H6.21a.25.25,0,0,1-.08,0L6,12.41H5.94a.13.13,0,0,1-.1,0l-.15,0-.15-.08-.13-.07-.13-.09,0,0,0-.06-.11-.08,0,0L5,11.79l0,0-.08-.09a.39.39,0,0,1-.06-.11.44.44,0,0,0-.11-.17.31.31,0,0,1-.07-.09,1.86,1.86,0,0,1-.11-.52c0-.18,0-.35,0-.51a.25.25,0,0,1,.19-.11l.25,0,.12,0a.11.11,0,0,1,.11,0l.09,0,.1,0,.11,0h.1a.19.19,0,0,1,.11.05l.08.1.1.15.09.11.1.13a.19.19,0,0,0,.07.06l.15.11.11.05.09.06.06,0,.16.13a.42.42,0,0,0,.23.07.24.24,0,0,0,.1.08l.12.06.09,0,.07,0a.28.28,0,0,0,.09.08l0,0a.69.69,0,0,0,.21.1.67.67,0,0,0,.28,0,.67.67,0,0,1,.19,0h.09l.18,0,.18-.05.08,0a.18.18,0,0,0,.08-.05.15.15,0,0,0,.1-.05,0,0,0,0,1,0,0A.77.77,0,0,0,9.05,11l.17-.13a.3.3,0,0,1,.08-.16,1.58,1.58,0,0,0,.12-.15.21.21,0,0,1,.06-.1,0,0,0,0,1,0,0s0-.08,0-.09l.06,0q0-.08.09-.27l0-.06,0-.08a.52.52,0,0,1,0-.21.51.51,0,0,1,.08-.18.08.08,0,0,1,0-.07.31.31,0,0,0,0-.1.11.11,0,0,0-.13,0,.53.53,0,0,1-.09.11l-.12.08-.12.06-.15.08-.12.06-.06,0L9,9.84l-.1.06L8.76,10l-.12,0-.13,0-.15,0-.19,0H7.72a.26.26,0,0,1-.21-.1s-.07,0-.07,0,0,.05-.08,0A1.38,1.38,0,0,1,7,10l-.32-.11a.52.52,0,0,0-.16-.06.17.17,0,0,0-.1,0l-.08,0a.27.27,0,0,0-.12-.06s-.07-.05,0-.1L6,9.56a.19.19,0,0,1-.1,0l-.14-.1-.1-.07-.14-.15a.27.27,0,0,1-.07-.08.13.13,0,0,0-.09-.05.1.1,0,0,0,0-.09.1.1,0,0,1,0-.07L5.2,8.83l-.09-.1A.29.29,0,0,0,5,8.65a.09.09,0,0,1-.06,0l-.12-.1a.14.14,0,0,1-.07-.06.34.34,0,0,0-.07-.15l0-.06a.86.86,0,0,0-.07-.1A.31.31,0,0,1,4.56,8l0-.1,0-.06a.34.34,0,0,0-.06-.12.3.3,0,0,1,0-.16l0,0-.06-.08a.47.47,0,0,1-.06-.15.56.56,0,0,0,0-.12.17.17,0,0,0,0-.1.36.36,0,0,0,0-.09.19.19,0,0,1,0-.08.14.14,0,0,0,0-.09l0-.19a.28.28,0,0,1,0-.09l0-.13s0,0,0-.07,0-.08,0-.17a.56.56,0,0,1,0-.2.25.25,0,0,1,0-.07.29.29,0,0,0,0-.08.15.15,0,0,0,0-.11.3.3,0,0,1,0-.1l.07-.09a.05.05,0,0,1,0,0,.29.29,0,0,1,.09-.11,1,1,0,0,1,0-.24.67.67,0,0,1,.09-.21V4.79l.06-.09,0-.1.1-.21a1.59,1.59,0,0,1,.13-.22c0-.06.06-.09.07-.09l0,0a.83.83,0,0,0,.16-.17.44.44,0,0,1,.11-.12l.09,0,.11,0,.07-.09a.11.11,0,0,1,.09,0,.77.77,0,0,1,.2-.21l.12-.06.15,0a.31.31,0,0,1,.13-.05l.09,0A.89.89,0,0,1,6.56,3a.63.63,0,0,0,.25-.1.49.49,0,0,0,.27-.05,1.43,1.43,0,0,1,.27-.09h.16l.17,0a.14.14,0,0,1,.14.08.07.07,0,0,1,.07-.06l.1,0a1.23,1.23,0,0,0,.27,0,.74.74,0,0,1,.26,0,.65.65,0,0,1,.21.07.46.46,0,0,0,.21.05L9.1,3a.85.85,0,0,1,.18.1l.14.08.14.1a.4.4,0,0,0,.13.1.07.07,0,0,0,.06,0,.27.27,0,0,0,.08.16l.13.13,0-.13a.28.28,0,0,1,0-.13.28.28,0,0,0,0-.08.27.27,0,0,1,0-.13c0-.1,0-.16.06-.19a.35.35,0,0,1,.16,0,1,1,0,0,1,.22.05,1.07,1.07,0,0,0,.27.06h.53l.12,0a.12.12,0,0,1,.1,0,.37.37,0,0,1,.14.07.15.15,0,0,0,.11.06,2.45,2.45,0,0,1,0,.27A1.49,1.49,0,0,1,11.67,3.77Z"/></svg>